# xmcd CD database file
#
# Track frame offsets:
#	150
#	23747
#	73172
#	95427
#	136620
#	149567
#	193750
#	228900
#	265657
#	283085
#	308110
#
# Disc length: 4650 seconds
#
# Revision: 1
# Processed by: cddbd v1.5.1PL0 Copyright (c) Steve Scherf et al.
# Submitted via: CDex 1.51
#
DISCID=9c12280b
DTITLE=Chick Corea and Return to Fever - Light as a feather
DYEAR=1972
DGENRE=Jazz
TTITLE0=You're everything
TTITLE1=Light as a feather
TTITLE2=Captain Marvel
TTITLE3=500 miles high
TTITLE4=Children's song
TTITLE5=Spain
TTITLE6=La fiesta
TTITLE7=Matrix
TTITLE8=What games shall we play today ?
TTITLE9=Spain (composite alternative take)
TTITLE10=Spain (alternative take)
EXTD=YEAR: 1972
EXTT0=
EXTT1=
EXTT2=
EXTT3=
EXTT4=
EXTT5=
EXTT6=
EXTT7=
EXTT8=
EXTT9=
EXTT10=
PLAYORDER=
